<svg xmlns="http://www.w3.org/2000/svg" width="1200" height="900" viewBox="0 0 1200 900"><rect width="1200" height="900" fill="#FFF9ED"/><path d="M 849,305 C 670,215 290,252 192,357 C 116,439 173,562 311,586 C 378,598 424,590 463,585 C 433,565 428,539 449,528 C 471,516 488,533 499,548 C 510,530 532,516 551,529 C 578,549 545,579 499,612 C 633,655 860,624 962,538 C 1023,487 1045,423 1033,351 L 1008,380 L 1033,351 L 1063,377 L 1033,351 C 1019,309 1001,287 977,264" fill="none" stroke="#BDE9F6" stroke-width="19" stroke-linecap="round" stroke-linejoin="round"/><g aria-label="Push-Up Bird"><path d="M121.75 -8.75Q85.25 -8.75 69.375 2.125Q53.5 13 49.875 30.875Q46.25 48.75 46.25 68V614.25Q46.25 633.25 50.125 650.625Q54 668 70.0 679.0Q86 690 122.75 690H328.25Q369.5 690 412.375 674.75Q455.25 659.5 491.75 628.375Q528.25 597.25 550.625 551.25Q573 505.25 573 443Q573 381.5 550.625 335.625Q528.25 289.75 491.625 259.125Q455 228.5 412.125 213.25Q369.25 198 327.25 198H198.5V67Q198.5 47.75 194.75 30.375Q191 13 175.125 2.125Q159.25 -8.75 121.75 -8.75ZM198.5 350.25H328.25Q350.25 350.25 371.625 359.75Q393 369.25 407.375 390.125Q421.75 411 421.75 444.25Q421.75 472.25 409.625 493.25Q397.5 514.25 376.375 526.0Q355.25 537.75 327.25 537.75H198.5Z" transform="translate(295.225 475) scale(0.105000 -0.105000)" fill="#203B45"/><path d="M256.25 -8.25Q209.5 -8.25 169.375 9.625Q129.25 27.5 99.25 60.25Q69.25 93 52.75 137.375Q36.25 181.75 36.25 235V416Q36.25 436 39.875 453.0Q43.5 470 59.375 480.75Q75.25 491.5 111.5 491.5Q148.75 491.5 164.25 480.625Q179.75 469.75 183.375 452.375Q187 435 187 415V234.75Q187 205.5 197.375 184.375Q207.75 163.25 228.125 151.875Q248.5 140.5 277 140.5Q305.75 140.5 326.5 152.25Q347.25 164 358.75 185.125Q370.25 206.25 370.25 234.75V416.75Q370.25 436.75 373.875 453.75Q377.5 470.75 393.375 481.125Q409.25 491.5 445.75 491.5Q482.75 491.5 498.125 480.625Q513.5 469.75 517.125 452.375Q520.75 435 520.75 415.75V64Q520.75 45.25 517.125 28.75Q513.5 12.25 497.75 1.875Q482 -8.5 445.5 -8.5Q419 -8.5 403.875 -2.5Q388.75 3.5 382.0 12.875Q375.25 22.25 373.75 32.125Q372.25 42 372.25 49.75L385 60.75Q381.75 56.5 371.75 45.5Q361.75 34.5 345.25 22.0Q328.75 9.5 306.625 0.625Q284.5 -8.25 256.25 -8.25Z" transform="translate(356.910 475) scale(0.105000 -0.105000)" fill="#203B45"/><path d="M220.75 -17Q194 -17 162.25 -11.0Q130.5 -5 100.75 6.5Q71 18 50.75 33.625Q30.5 49.25 27.75 69.25Q26 79.25 28.625 90.375Q31.25 101.5 37.875 114.25Q44.5 127 55.25 141Q63.25 151.5 72.875 154.75Q82.5 158 96.25 153.75Q112 151.25 128.25 143.5Q144.5 135.75 161.25 127.125Q178 118.5 195.875 112.125Q213.75 105.75 233 105.75Q261 105.75 276.625 114.125Q292.25 122.5 292.25 137.75Q292.25 148.5 285.625 155.875Q279 163.25 267.375 168.375Q255.75 173.5 240.625 177.625Q225.5 181.75 208.125 186.125Q190.75 190.5 172.5 196.25Q148.25 203.25 124.875 214.0Q101.5 224.75 82.875 242.25Q64.25 259.75 53.0 285.25Q41.75 310.75 41.75 348.25Q41.75 396.75 64.625 430.0Q87.5 463.25 131.5 480.75Q175.5 498.25 238.75 498.25Q257.25 498.25 275.0 495.875Q292.75 493.5 310.25 488.75Q327.75 484 344.75 476.75Q361.75 469.5 378.5 460.25Q409.25 445.5 410.25 421.875Q411.25 398.25 392.75 372.5Q381.5 355.75 369.625 348.25Q357.75 340.75 345.25 343.5Q329.25 347.5 310.625 356.625Q292 365.75 271.625 373.75Q251.25 381.75 230.5 381.75Q214.25 381.75 202.125 377.5Q190 373.25 183.875 365.5Q177.75 357.75 177.75 347.5Q177.75 335 185.5 327.25Q193.25 319.5 206.125 314.5Q219 309.5 236.125 305.75Q253.25 302 272.75 298.25Q299.75 293.25 328.125 284.5Q356.5 275.75 380.125 259.875Q403.75 244 418.25 216.75Q432.75 189.5 432.75 145.75Q432.75 67 377.75 25.0Q322.75 -17 220.75 -17Z" transform="translate(414.710 475) scale(0.105000 -0.105000)" fill="#203B45"/><path d="M112 -9.5Q75.5 -9.5 59.625 1.375Q43.75 12.25 40.5 29.75Q37.25 47.25 37.25 66.5V642.75Q37.25 662.75 41.0 679.75Q44.75 696.75 60.625 707.25Q76.5 717.75 113 717.75Q149.5 717.75 165.0 706.875Q180.5 696 184.125 679.0Q187.75 662 187.75 641.75V438Q205.5 456.5 234.0 473.5Q262.5 490.5 302 490.5Q364.25 490.5 413.75 459.0Q463.25 427.5 492.375 372.875Q521.5 318.25 521.5 247.25V65.5Q521.5 46.25 517.875 29.25Q514.25 12.25 498.875 1.5Q483.5 -9.25 446.25 -9.25Q410.5 -9.25 394.25 1.25Q378 11.75 374.375 29.125Q370.75 46.5 370.75 67.25V248.25Q370.75 277 360.75 297.625Q350.75 318.25 331.5 330.0Q312.25 341.75 284.25 341.75Q247.25 341.75 219.75 319.5Q192.25 297.25 187.75 264.75V65.5Q187.75 46.25 184.0 28.875Q180.25 11.5 164.75 1.0Q149.25 -9.5 112 -9.5Z" transform="translate(461.800 475) scale(0.105000 -0.105000)" fill="#203B45"/><path d="M76.25 187Q62.25 187 47.125 190.25Q32 193.5 21.875 208.25Q11.75 223 11.75 257.25Q11.75 291 22.125 305.0Q32.5 319 47.625 322.375Q62.75 325.75 76.5 325.75H311.25Q326 325.75 341.0 322.375Q356 319 366.0 304.625Q376 290.25 376 256.5Q376 223 366.25 208.25Q356.5 193.5 341.75 190.25Q327 187 310.75 187Z" transform="translate(518.970 475) scale(0.105000 -0.105000)" fill="#203B45"/><path d="M342.25 -17.75Q269.25 -17.75 213.375 10.375Q157.5 38.5 119.375 86.125Q81.25 133.75 62.0 193.125Q42.75 252.5 42.75 315V614.25Q42.75 634.25 46.5 651.625Q50.25 669 66.125 679.875Q82 690.75 119.25 690.75Q156.75 690.75 172.625 679.875Q188.5 669 192.25 651.625Q196 634.25 196 613.25V315Q196 270.75 210.625 229.625Q225.25 188.5 258.0 161.75Q290.75 135 345.25 135Q390.75 135 423.75 157.25Q456.75 179.5 474.75 220.25Q492.75 261 492.75 316V619.5Q492.75 638.25 496.875 654.125Q501 670 517.0 680.375Q533 690.75 569.5 690.75Q606.75 690.75 622.25 679.5Q637.75 668.25 641.375 650.875Q645 633.5 645 613.25V313Q645 249.75 625.375 190.875Q605.75 132 567.125 84.875Q528.5 37.75 472.125 10.0Q415.75 -17.75 342.25 -17.75Z" transform="translate(561.125 475) scale(0.105000 -0.105000)" fill="#203B45"/><path d="M302.5 0Q253.5 0 216.25 19.25Q179 38.5 154.25 72.375Q129.5 106.25 117.125 150.25Q104.75 194.25 105.5 244.5Q106.25 294 119.0 338.625Q131.75 383.25 156.5 417.375Q181.25 451.5 217.75 471.125Q254.25 490.75 302.5 490.75Q347.25 490.75 388.375 470.75Q429.5 450.75 461.75 416.125Q494 381.5 512.5 336.625Q531 291.75 531 242.25Q531 191.5 512.5 147.25Q494 103 462.125 70.0Q430.25 37 389.125 18.5Q348 0 302.5 0ZM110 -216.25Q74.25 -216.25 58.375 -205.75Q42.5 -195.25 39.125 -178.625Q35.75 -162 35.75 -142.75V416.25Q35.75 435.75 39.0 452.375Q42.25 469 57.75 479.875Q73.25 490.75 109 490.75Q139.5 490.75 158.375 482.0Q177.25 473.25 184.75 454V-141.75Q186.25 -161 182.25 -178.125Q178.25 -195.25 162.375 -205.75Q146.5 -216.25 110 -216.25ZM282.25 140.75Q309.75 140.75 332.0 154.125Q354.25 167.5 367.5 190.5Q380.75 213.5 380.75 241.5Q380.75 270.5 367.875 293.25Q355 316 332.75 328.875Q310.5 341.75 283 341.75Q255.75 341.75 233.5 328.375Q211.25 315 198.375 292.625Q185.5 270.25 185.5 241.5Q185.5 213.5 198.75 190.5Q212 167.5 233.875 154.125Q255.75 140.75 282.25 140.75Z" transform="translate(632.365 475) scale(0.105000 -0.105000)" fill="#203B45"/><path d="" transform="translate(689.325 475) scale(0.105000 -0.105000)" fill="#203B45"/><path d="M113.5 -8.75Q77.75 -8.75 61.875 2.5Q46 13.75 42.25 32.125Q38.5 50.5 38.5 71V613Q38.5 632.75 42.375 650.5Q46.25 668.25 62.125 679.5Q78 690.75 114.5 690.75H363.5Q423 690.75 469.125 662.625Q515.25 634.5 541.875 587.625Q568.5 540.75 568.25 485.75Q568.5 464.25 563.875 442.875Q559.25 421.5 549.75 402.125Q540.25 382.75 526.25 366.5Q546.5 347 560.875 321.625Q575.25 296.25 582.625 268.25Q590 240.25 590 211Q589 164.5 572.25 124.375Q555.5 84.25 525.625 54.625Q495.75 25 456.75 8.125Q417.75 -8.75 373.5 -8.75ZM190.5 142H363.5Q381.25 142 398.625 148.625Q416 155.25 427.25 172.625Q438.5 190 438.5 222Q438.5 243.25 433.5 256.875Q428.5 270.5 419.625 278.125Q410.75 285.75 399.875 289.0Q389 292.25 377.125 293.125Q365.25 294 353.75 294H324.5Q291.25 294 276.875 308.625Q262.5 323.25 262.5 359.25Q262.5 393.5 278.125 407.5Q293.75 421.5 328.25 421.5H356.75Q367.25 421.5 378.0 422.5Q388.75 423.5 397.5 428.625Q406.25 433.75 411.75 445.125Q417.25 456.5 417.25 477.25Q417.25 511.25 400.25 525.5Q383.25 539.75 339.5 539.75H190.5Z" transform="translate(713.630 475) scale(0.105000 -0.105000)" fill="#203B45"/><path d="M120.5 -9.5Q84.25 -9.5 68.375 1.375Q52.5 12.25 49.25 29.625Q46 47 46 66.25V415.25Q46 434.5 49.625 451.5Q53.25 468.5 69.125 479.25Q85 490 121.5 490Q158 490 173.375 479.125Q188.75 468.25 192.375 450.875Q196 433.5 196 413.25V65.25Q196 46 192.375 28.625Q188.75 11.25 173.25 0.875Q157.75 -9.5 120.5 -9.5ZM120.5 562.75Q83.25 562.75 67.0 573.875Q50.75 585 47.25 603.0Q43.75 621 43.75 641Q43.75 661.75 47.625 679.125Q51.5 696.5 67.875 707.125Q84.25 717.75 121.5 717.75Q158.75 717.75 174.625 706.625Q190.5 695.5 194.375 677.625Q198.25 659.75 198.25 639.5Q198.25 619.75 194.375 601.875Q190.5 584 174.625 573.375Q158.75 562.75 120.5 562.75Z" transform="translate(777.625 475) scale(0.105000 -0.105000)" fill="#203B45"/><path d="M115.5 -9.5Q79.25 -9.5 63.5 1.375Q47.75 12.25 44.5 30.125Q41.25 48 41.25 67.25V416Q41.25 436.25 44.875 453.25Q48.5 470.25 64.25 480.5Q80 490.75 116.5 490.75Q152 490.75 167.5 481.25Q183 471.75 186.75 459.25Q190.5 446.75 190.5 437.75L178.5 431.75Q181 436 189.5 446.25Q198 456.5 213.125 468.125Q228.25 479.75 249.5 488.0Q270.75 496.25 298.75 496.25Q309.5 496.25 323.0 494.375Q336.5 492.5 351.0 488.25Q365.5 484 377.625 476.5Q389.75 469 397.125 457.75Q404.5 446.5 404.5 430.75Q404.5 390 385.625 361.5Q366.75 333 338.25 333Q321.25 333 313.875 335.75Q306.5 338.5 302.375 341.625Q298.25 344.75 291.875 347.5Q285.5 350.25 270.25 350.25Q255.25 350.25 241.375 346.0Q227.5 341.75 216.25 333.25Q205 324.75 198.5 312.375Q192 300 192 284.5V65.25Q192 46 188.375 28.625Q184.75 11.25 168.875 0.875Q153 -9.5 115.5 -9.5Z" transform="translate(802.035 475) scale(0.105000 -0.105000)" fill="#203B45"/><path d="M254.75 -8Q209.5 -8 168.25 11.625Q127 31.25 95.125 65.875Q63.25 100.5 44.75 146.125Q26.25 191.75 26.25 242.75Q26.25 292 44.75 336.625Q63.25 381.25 95.5 415.75Q127.75 450.25 169.0 470.25Q210.25 490.25 254.75 490.25Q303 490.25 339.5 470.625Q376 451 400.75 416.75Q425.5 382.5 438.25 337.75Q451 293 451.75 243.5Q452.5 193.25 440.125 148.25Q427.75 103.25 403.0 68.0Q378.25 32.75 341.375 12.375Q304.5 -8 254.75 -8ZM275 140.25Q301.75 140.25 323.5 153.625Q345.25 167 358.5 189.75Q371.75 212.5 371.75 240.5Q371.75 269.5 358.875 292.0Q346 314.5 324.125 327.875Q302.25 341.25 274.25 341.25Q247 341.25 224.625 328.25Q202.25 315.25 189.375 292.375Q176.5 269.5 176.5 240.5Q176.5 212.5 189.75 189.75Q203 167 225.75 153.625Q248.5 140.25 275 140.25ZM449.5 -8.75Q415.5 -8.75 398.875 2.0Q382.25 12.75 377 36.25V641.75Q377 661.25 379.5 678.625Q382 696 397.125 706.875Q412.25 717.75 448.5 717.75Q485.75 717.75 501.125 707.25Q516.5 696.75 520.25 679.75Q524 662.75 524 642.75V67.25Q524 48 520.375 30.5Q516.75 13 501.375 2.125Q486 -8.75 449.5 -8.75Z" transform="translate(845.450 475) scale(0.105000 -0.105000)" fill="#203B45"/></g><g transform="translate(957 256) rotate(-28)"><path d="M -48,15 C -71,3 -76,-8 -87,-23 C -65,-23 -50,-17 -35,-9 C -29,-38 -8,-56 18,-51 C 46,-48 59,-22 50,1 C 42,23 19,37 -8,33 C -29,32 -41,26 -48,15 Z" fill="#FFD45B"/><path d="M -23,5 C -38,-17 -35,-41 -22,-55 C -3,-44 4,-19 -2,0 C -7,15 -16,17 -23,5 Z" fill="#FFE38B"/><path d="M 48,-24 L 75,-13 L 48,-4 Z" fill="#F47D64"/><circle cx="29" cy="-28" r="5.5" fill="#203B45"/><path d="M 8,-52 L 4,-65 M 20,-52 L 22,-64" stroke="#FFD45B" stroke-width="8" stroke-linecap="round"/></g><path d="M 281,335 L 291,325" stroke="#F47D64" stroke-width="10" stroke-linecap="round"/></svg>