<svg xmlns="http://www.w3.org/2000/svg" width="450" height="450" viewBox="0 0 450 450"><rect width="450" height="450" fill="#F47D64"/><polygon points="65,170 120,150 84,70 175,102 235,35 263,116 355,72 336,166 405,212 343,266 378,359 280,328 233,402 188,328 85,367 112,268 35,240" fill="#FFD45B" stroke="#203B45" stroke-width="7" stroke-linejoin="round"/><g aria-label="B"><path d="M121 -8Q76 -8 57.0 5.5Q38 19 34.0 40.5Q30 62 30 85V601Q30 623 34.0 644.0Q38 665 57.0 678.5Q76 692 122 692H356Q417 692 465.0 662.5Q513 633 541.0 584.0Q569 535 569 478Q569 459 565.5 439.5Q562 420 554.5 401.5Q547 383 536 366Q553 345 565.0 320.5Q577 296 583.0 270.5Q589 245 589 219Q588 171 570.5 129.5Q553 88 522.0 57.5Q491 27 451.0 9.5Q411 -8 366 -8ZM213 175H356Q363 175 375.0 177.5Q387 180 396.5 191.5Q406 203 406 230Q406 244 403.5 253.5Q401 263 396.0 268.5Q391 274 384.5 276.5Q378 279 369.5 280.0Q361 281 351 281H338Q298 281 281.0 298.0Q264 315 264 358Q264 399 282.5 415.5Q301 432 343 432H355Q363 432 369.0 433.0Q375 434 378.5 438.0Q382 442 384.0 449.5Q386 457 386 470Q386 493 375.5 501.0Q365 509 334 509H213Z" transform="translate(137.041 322) scale(0.302000 -0.302000)" fill="#FFF9ED" stroke="#203B45" stroke-width="33.11258278145696" stroke-linejoin="round" paint-order="stroke fill"/></g><ellipse cx="239" cy="186" rx="19" ry="25" fill="#FFF9ED" stroke="#203B45" stroke-width="4"/><ellipse cx="245" cy="188" rx="8" ry="12" fill="#203B45"/><path d="M249 210l34 11-31 15Z" fill="#F47D64" stroke="#203B45" stroke-width="4"/></svg>