<svg xmlns="http://www.w3.org/2000/svg" width="410" height="410" viewBox="0 0 410 410"><rect width="410" height="410" fill="#FFF9ED"/><g transform="translate(-395 -162)"><g id="pip-medallion"><circle cx="600" cy="379" r="170" fill="#D9A033" stroke="#203B45" stroke-width="9"/><circle cx="600" cy="367" r="166" fill="#FFD45B" stroke="#203B45" stroke-width="9"/><circle cx="600" cy="367" r="142" fill="#FFF9ED" stroke="#203B45" stroke-width="5"/><path d="M751.0 367.0L757.0 367.0" stroke="#203B45" stroke-width="3" stroke-linecap="round"/><path d="M741.9 418.6L747.5 420.7" stroke="#203B45" stroke-width="3" stroke-linecap="round"/><path d="M715.7 464.1L720.3 467.9" stroke="#203B45" stroke-width="3" stroke-linecap="round"/><path d="M675.5 497.8L678.5 503.0" stroke="#203B45" stroke-width="3" stroke-linecap="round"/><path d="M626.2 515.7L627.3 521.6" stroke="#203B45" stroke-width="3" stroke-linecap="round"/><path d="M573.8 515.7L572.7 521.6" stroke="#203B45" stroke-width="3" stroke-linecap="round"/><path d="M524.5 497.8L521.5 503.0" stroke="#203B45" stroke-width="3" stroke-linecap="round"/><path d="M484.3 464.1L479.7 467.9" stroke="#203B45" stroke-width="3" stroke-linecap="round"/><path d="M458.1 418.6L452.5 420.7" stroke="#203B45" stroke-width="3" stroke-linecap="round"/><path d="M449.0 367.0L443.0 367.0" stroke="#203B45" stroke-width="3" stroke-linecap="round"/><path d="M458.1 315.4L452.5 313.3" stroke="#203B45" stroke-width="3" stroke-linecap="round"/><path d="M484.3 269.9L479.7 266.1" stroke="#203B45" stroke-width="3" stroke-linecap="round"/><path d="M524.5 236.2L521.5 231.0" stroke="#203B45" stroke-width="3" stroke-linecap="round"/><path d="M573.8 218.3L572.7 212.4" stroke="#203B45" stroke-width="3" stroke-linecap="round"/><path d="M626.2 218.3L627.3 212.4" stroke="#203B45" stroke-width="3" stroke-linecap="round"/><path d="M675.5 236.2L678.5 231.0" stroke="#203B45" stroke-width="3" stroke-linecap="round"/><path d="M715.7 269.9L720.3 266.1" stroke="#203B45" stroke-width="3" stroke-linecap="round"/><path d="M741.9 315.4L747.5 313.3" stroke="#203B45" stroke-width="3" stroke-linecap="round"/><path d="M559 291C535 265 548 257 568 272C564 245 584 244 596 270C610 246 630 256 612 283" fill="#FFD45B" stroke="#203B45" stroke-width="7" stroke-linejoin="round"/>
    <path d="M508 370C506 309 538 283 588 283C644 279 685 319 687 371C691 427 657 458 604 459C548 459 510 431 508 370Z" fill="#FFD45B" stroke="#203B45" stroke-width="7"/>
    <path d="M522 392Q541 443 600 445Q658 447 676 403Q663 455 605 455Q541 455 522 414Z" fill="#D9A033"/>
    <ellipse cx="563" cy="352" rx="25" ry="33" fill="white" stroke="#203B45" stroke-width="5"/>
    <ellipse cx="630" cy="352" rx="25" ry="33" fill="white" stroke="#203B45" stroke-width="5"/>
    <ellipse cx="570" cy="356" rx="10" ry="17" fill="#203B45"/><ellipse cx="623" cy="356" rx="10" ry="17" fill="#203B45"/>
    <circle cx="567" cy="348" r="4" fill="white"/><circle cx="620" cy="348" r="4" fill="white"/>
    <ellipse cx="541" cy="387" rx="14" ry="8" fill="#F47D64"/><ellipse cx="658" cy="387" rx="14" ry="8" fill="#F47D64"/>
    <path d="M577 388Q599 372 621 388Q612 414 599 414Q586 414 577 388Z" fill="#F47D64" stroke="#203B45" stroke-width="5" stroke-linejoin="round"/>
    <path d="M579 390Q600 399 619 390" fill="none" stroke="#203B45" stroke-width="4" stroke-linecap="round"/>
    <path d="M533 322Q541 308 554 306" fill="none" stroke="#FFF9ED" stroke-width="7" stroke-linecap="round"/></g></g></svg>